<mxfile host="app.diagrams.net" agent="Mozilla/5.0 (Windows NT 10.0; Win64; x64) AppleWebKit/537.36 (KHTML, like Gecko) Chrome/139.0.0.0 Safari/537.36" version="28.1.0">
  <diagram name="Page-1" id="-DXuAAtkrkxpj3LOscVE">
    <mxGraphModel dx="974" dy="535" grid="1" gridSize="5" guides="1" tooltips="1" connect="1" arrows="1" fold="1" page="1" pageScale="1" pageWidth="850" pageHeight="1100" math="0" shadow="0">
      <root>
        <mxCell id="0" />
        <mxCell id="1" parent="0" />
        <mxCell id="AQJB-UiX3F591cEKx2Es-1" value="" style="rounded=0;whiteSpace=wrap;html=1;movable=0;resizable=0;rotatable=0;deletable=0;editable=0;locked=1;connectable=0;" vertex="1" parent="1">
          <mxGeometry x="80" y="160" width="505" height="260" as="geometry" />
        </mxCell>
        <mxCell id="AQJB-UiX3F591cEKx2Es-14" value="" style="rounded=0;whiteSpace=wrap;html=1;" vertex="1" parent="1">
          <mxGeometry x="144.69" y="315" width="10" height="90" as="geometry" />
        </mxCell>
        <mxCell id="AQJB-UiX3F591cEKx2Es-20" value="&lt;font style=&quot;line-height: 80%; font-size: 4px;&quot;&gt;THRUST poti&lt;/font&gt;" style="text;html=1;align=center;verticalAlign=middle;whiteSpace=wrap;rounded=0;" vertex="1" parent="1">
          <mxGeometry x="130" y="300" width="39.37" height="15" as="geometry" />
        </mxCell>
        <mxCell id="AQJB-UiX3F591cEKx2Es-21" value="" style="whiteSpace=wrap;html=1;aspect=fixed;" vertex="1" parent="1">
          <mxGeometry x="90" y="390" width="15" height="15" as="geometry" />
        </mxCell>
        <mxCell id="AQJB-UiX3F591cEKx2Es-22" value="&lt;font style=&quot;line-height: 80%; font-size: 4px;&quot;&gt;ABORT&lt;/font&gt;" style="text;html=1;align=center;verticalAlign=middle;whiteSpace=wrap;rounded=0;" vertex="1" parent="1">
          <mxGeometry x="77.82" y="372.5" width="39.37" height="15" as="geometry" />
        </mxCell>
        <mxCell id="AQJB-UiX3F591cEKx2Es-25" value="" style="ellipse;whiteSpace=wrap;html=1;aspect=fixed;" vertex="1" parent="1">
          <mxGeometry x="90" y="175" width="15" height="15" as="geometry" />
        </mxCell>
        <mxCell id="AQJB-UiX3F591cEKx2Es-27" value="&lt;font style=&quot;line-height: 80%; font-size: 4px;&quot;&gt;CONNECTED&lt;/font&gt;" style="text;html=1;align=center;verticalAlign=middle;whiteSpace=wrap;rounded=0;" vertex="1" parent="1">
          <mxGeometry x="77.81" y="160" width="39.37" height="15" as="geometry" />
        </mxCell>
        <mxCell id="AQJB-UiX3F591cEKx2Es-45" value="" style="group" vertex="1" connectable="0" parent="1">
          <mxGeometry x="485" y="160" width="99.37" height="35" as="geometry" />
        </mxCell>
        <mxCell id="AQJB-UiX3F591cEKx2Es-33" value="" style="rounded=0;whiteSpace=wrap;html=1;" vertex="1" parent="AQJB-UiX3F591cEKx2Es-45">
          <mxGeometry x="5" y="5" width="90" height="30" as="geometry" />
        </mxCell>
        <mxCell id="AQJB-UiX3F591cEKx2Es-38" value="" style="group" vertex="1" connectable="0" parent="AQJB-UiX3F591cEKx2Es-45">
          <mxGeometry width="39.370000000000005" height="30" as="geometry" />
        </mxCell>
        <mxCell id="AQJB-UiX3F591cEKx2Es-36" value="" style="ellipse;whiteSpace=wrap;html=1;aspect=fixed;movable=1;resizable=1;rotatable=1;deletable=1;editable=1;locked=0;connectable=1;" vertex="1" parent="AQJB-UiX3F591cEKx2Es-38">
          <mxGeometry x="12.190000000000055" y="15" width="15" height="15" as="geometry" />
        </mxCell>
        <mxCell id="AQJB-UiX3F591cEKx2Es-37" value="&lt;font style=&quot;line-height: 80%; font-size: 4px;&quot;&gt;HIGH G&lt;/font&gt;" style="text;html=1;align=center;verticalAlign=middle;whiteSpace=wrap;rounded=0;movable=1;resizable=1;rotatable=1;deletable=1;editable=1;locked=0;connectable=1;" vertex="1" parent="AQJB-UiX3F591cEKx2Es-38">
          <mxGeometry width="39.37" height="15" as="geometry" />
        </mxCell>
        <mxCell id="AQJB-UiX3F591cEKx2Es-39" value="" style="group" vertex="1" connectable="0" parent="AQJB-UiX3F591cEKx2Es-45">
          <mxGeometry x="30" width="39.370000000000005" height="30" as="geometry" />
        </mxCell>
        <mxCell id="AQJB-UiX3F591cEKx2Es-40" value="" style="ellipse;whiteSpace=wrap;html=1;aspect=fixed;movable=1;resizable=1;rotatable=1;deletable=1;editable=1;locked=0;connectable=1;" vertex="1" parent="AQJB-UiX3F591cEKx2Es-39">
          <mxGeometry x="12.190000000000055" y="15" width="15" height="15" as="geometry" />
        </mxCell>
        <mxCell id="AQJB-UiX3F591cEKx2Es-41" value="&lt;font style=&quot;line-height: 80%; font-size: 4px;&quot;&gt;HEAT SHIELD&lt;/font&gt;" style="text;html=1;align=center;verticalAlign=middle;whiteSpace=wrap;rounded=0;movable=1;resizable=1;rotatable=1;deletable=1;editable=1;locked=0;connectable=1;" vertex="1" parent="AQJB-UiX3F591cEKx2Es-39">
          <mxGeometry width="39.37" height="15" as="geometry" />
        </mxCell>
        <mxCell id="AQJB-UiX3F591cEKx2Es-42" value="" style="group" vertex="1" connectable="0" parent="AQJB-UiX3F591cEKx2Es-45">
          <mxGeometry x="60" width="39.370000000000005" height="30" as="geometry" />
        </mxCell>
        <mxCell id="AQJB-UiX3F591cEKx2Es-43" value="" style="ellipse;whiteSpace=wrap;html=1;aspect=fixed;movable=1;resizable=1;rotatable=1;deletable=1;editable=1;locked=0;connectable=1;" vertex="1" parent="AQJB-UiX3F591cEKx2Es-42">
          <mxGeometry x="12.190000000000055" y="15" width="15" height="15" as="geometry" />
        </mxCell>
        <mxCell id="AQJB-UiX3F591cEKx2Es-44" value="&lt;font style=&quot;line-height: 80%; font-size: 4px;&quot;&gt;COMMNET&lt;/font&gt;" style="text;html=1;align=center;verticalAlign=middle;whiteSpace=wrap;rounded=0;movable=1;resizable=1;rotatable=1;deletable=1;editable=1;locked=0;connectable=1;" vertex="1" parent="AQJB-UiX3F591cEKx2Es-42">
          <mxGeometry width="39.37" height="15" as="geometry" />
        </mxCell>
        <mxCell id="AQJB-UiX3F591cEKx2Es-46" value="" style="group" vertex="1" connectable="0" parent="1">
          <mxGeometry x="915" y="190" width="240" height="200" as="geometry" />
        </mxCell>
        <mxCell id="AQJB-UiX3F591cEKx2Es-11" value="" style="ellipse;whiteSpace=wrap;html=1;" vertex="1" parent="AQJB-UiX3F591cEKx2Es-46">
          <mxGeometry width="240" height="200" as="geometry" />
        </mxCell>
        <mxCell id="AQJB-UiX3F591cEKx2Es-12" value="Joystick" style="text;html=1;align=center;verticalAlign=middle;whiteSpace=wrap;rounded=0;" vertex="1" parent="AQJB-UiX3F591cEKx2Es-46">
          <mxGeometry x="90" y="20" width="60" height="30" as="geometry" />
        </mxCell>
        <mxCell id="AQJB-UiX3F591cEKx2Es-13" value="" style="ellipse;whiteSpace=wrap;html=1;" vertex="1" parent="AQJB-UiX3F591cEKx2Es-46">
          <mxGeometry x="85" y="65" width="70" height="70" as="geometry" />
        </mxCell>
        <mxCell id="AQJB-UiX3F591cEKx2Es-50" value="" style="group" vertex="1" connectable="0" parent="1">
          <mxGeometry x="160" y="370" width="39.370000000000005" height="40" as="geometry" />
        </mxCell>
        <mxCell id="AQJB-UiX3F591cEKx2Es-17" value="" style="ellipse;whiteSpace=wrap;html=1;aspect=fixed;" vertex="1" parent="AQJB-UiX3F591cEKx2Es-50">
          <mxGeometry x="12.180000000000007" y="15" width="15" height="15" as="geometry" />
        </mxCell>
        <mxCell id="AQJB-UiX3F591cEKx2Es-18" value="" style="rounded=0;whiteSpace=wrap;html=1;" vertex="1" parent="AQJB-UiX3F591cEKx2Es-50">
          <mxGeometry x="14.680000000000007" width="10" height="20" as="geometry" />
        </mxCell>
        <mxCell id="AQJB-UiX3F591cEKx2Es-19" value="&lt;font style=&quot;line-height: 80%; font-size: 4px;&quot;&gt;THRUST ON / OFF&lt;/font&gt;" style="text;html=1;align=center;verticalAlign=middle;whiteSpace=wrap;rounded=0;" vertex="1" parent="AQJB-UiX3F591cEKx2Es-50">
          <mxGeometry y="25" width="39.37" height="15" as="geometry" />
        </mxCell>
        <mxCell id="AQJB-UiX3F591cEKx2Es-51" value="" style="group" vertex="1" connectable="0" parent="1">
          <mxGeometry x="167.18" y="310" width="25.00999999999999" height="30" as="geometry" />
        </mxCell>
        <mxCell id="AQJB-UiX3F591cEKx2Es-15" value="" style="ellipse;whiteSpace=wrap;html=1;aspect=fixed;" vertex="1" parent="AQJB-UiX3F591cEKx2Es-51">
          <mxGeometry x="5" y="15" width="15" height="15" as="geometry" />
        </mxCell>
        <mxCell id="AQJB-UiX3F591cEKx2Es-16" value="&lt;font style=&quot;font-size: 5px;&quot;&gt;THRUST&lt;/font&gt;" style="text;html=1;align=center;verticalAlign=middle;whiteSpace=wrap;rounded=0;" vertex="1" parent="AQJB-UiX3F591cEKx2Es-51">
          <mxGeometry width="25.01" height="15" as="geometry" />
        </mxCell>
        <mxCell id="AQJB-UiX3F591cEKx2Es-56" value="" style="rounded=0;whiteSpace=wrap;html=1;" vertex="1" parent="1">
          <mxGeometry x="550" y="387.5" width="15" height="15" as="geometry" />
        </mxCell>
        <mxCell id="AQJB-UiX3F591cEKx2Es-58" value="&lt;font style=&quot;line-height: 80%; font-size: 4px;&quot;&gt;STAGING&lt;/font&gt;" style="text;html=1;align=center;verticalAlign=middle;whiteSpace=wrap;rounded=0;" vertex="1" parent="1">
          <mxGeometry x="537.82" y="370" width="39.37" height="15" as="geometry" />
        </mxCell>
        <mxCell id="AQJB-UiX3F591cEKx2Es-59" value="" style="ellipse;whiteSpace=wrap;html=1;aspect=fixed;" vertex="1" parent="1">
          <mxGeometry x="549.99" y="335" width="15" height="15" as="geometry" />
        </mxCell>
        <mxCell id="AQJB-UiX3F591cEKx2Es-60" value="" style="rounded=0;whiteSpace=wrap;html=1;" vertex="1" parent="1">
          <mxGeometry x="552.49" y="320" width="10" height="20" as="geometry" />
        </mxCell>
        <mxCell id="AQJB-UiX3F591cEKx2Es-61" value="&lt;font style=&quot;line-height: 80%; font-size: 4px;&quot;&gt;STAGING ON/OFF&lt;/font&gt;" style="text;html=1;align=center;verticalAlign=middle;whiteSpace=wrap;rounded=0;" vertex="1" parent="1">
          <mxGeometry x="537.81" y="345" width="39.37" height="15" as="geometry" />
        </mxCell>
        <mxCell id="AQJB-UiX3F591cEKx2Es-62" value="" style="ellipse;whiteSpace=wrap;html=1;aspect=fixed;" vertex="1" parent="1">
          <mxGeometry x="510.63" y="335" width="15" height="15" as="geometry" />
        </mxCell>
        <mxCell id="AQJB-UiX3F591cEKx2Es-63" value="&lt;font style=&quot;line-height: 80%; font-size: 4px;&quot;&gt;STAGING&lt;/font&gt;" style="text;html=1;align=center;verticalAlign=middle;whiteSpace=wrap;rounded=0;" vertex="1" parent="1">
          <mxGeometry x="498.44" y="320" width="39.37" height="15" as="geometry" />
        </mxCell>
        <mxCell id="AQJB-UiX3F591cEKx2Es-74" value="" style="group" vertex="1" connectable="0" parent="1">
          <mxGeometry x="165" y="160" width="90" height="35" as="geometry" />
        </mxCell>
        <mxCell id="AQJB-UiX3F591cEKx2Es-64" value="" style="rounded=0;whiteSpace=wrap;html=1;" vertex="1" parent="AQJB-UiX3F591cEKx2Es-74">
          <mxGeometry y="15" width="90" height="20" as="geometry" />
        </mxCell>
        <mxCell id="AQJB-UiX3F591cEKx2Es-65" value="&lt;font style=&quot;line-height: 80%; font-size: 4px;&quot;&gt;ALTITUDE&lt;/font&gt;" style="text;html=1;align=center;verticalAlign=middle;whiteSpace=wrap;rounded=0;" vertex="1" parent="AQJB-UiX3F591cEKx2Es-74">
          <mxGeometry x="25.319999999999993" width="39.37" height="15" as="geometry" />
        </mxCell>
        <mxCell id="AQJB-UiX3F591cEKx2Es-75" value="" style="group" vertex="1" connectable="0" parent="1">
          <mxGeometry x="275" y="160" width="90" height="35" as="geometry" />
        </mxCell>
        <mxCell id="AQJB-UiX3F591cEKx2Es-66" value="" style="rounded=0;whiteSpace=wrap;html=1;" vertex="1" parent="AQJB-UiX3F591cEKx2Es-75">
          <mxGeometry y="15" width="90" height="20" as="geometry" />
        </mxCell>
        <mxCell id="AQJB-UiX3F591cEKx2Es-67" value="&lt;font style=&quot;line-height: 80%; font-size: 4px;&quot;&gt;SPEED&lt;/font&gt;" style="text;html=1;align=center;verticalAlign=middle;whiteSpace=wrap;rounded=0;" vertex="1" parent="AQJB-UiX3F591cEKx2Es-75">
          <mxGeometry x="25.319999999999993" width="39.37" height="15" as="geometry" />
        </mxCell>
        <mxCell id="AQJB-UiX3F591cEKx2Es-76" value="" style="group" vertex="1" connectable="0" parent="1">
          <mxGeometry x="385" y="160" width="20" height="45" as="geometry" />
        </mxCell>
        <mxCell id="AQJB-UiX3F591cEKx2Es-68" value="" style="rounded=0;whiteSpace=wrap;html=1;" vertex="1" parent="AQJB-UiX3F591cEKx2Es-76">
          <mxGeometry x="5" y="15" width="10" height="30" as="geometry" />
        </mxCell>
        <mxCell id="AQJB-UiX3F591cEKx2Es-69" value="&lt;font style=&quot;line-height: 80%; font-size: 4px;&quot;&gt;BAT&lt;/font&gt;" style="text;html=1;align=center;verticalAlign=middle;whiteSpace=wrap;rounded=0;" vertex="1" parent="AQJB-UiX3F591cEKx2Es-76">
          <mxGeometry width="20" height="15" as="geometry" />
        </mxCell>
        <mxCell id="AQJB-UiX3F591cEKx2Es-77" value="" style="group" vertex="1" connectable="0" parent="1">
          <mxGeometry x="415" y="160" width="20" height="45" as="geometry" />
        </mxCell>
        <mxCell id="AQJB-UiX3F591cEKx2Es-70" value="" style="rounded=0;whiteSpace=wrap;html=1;" vertex="1" parent="AQJB-UiX3F591cEKx2Es-77">
          <mxGeometry x="4.680000000000007" y="15" width="10" height="30" as="geometry" />
        </mxCell>
        <mxCell id="AQJB-UiX3F591cEKx2Es-71" value="&lt;font style=&quot;line-height: 80%; font-size: 4px;&quot;&gt;FUEL&lt;/font&gt;" style="text;html=1;align=center;verticalAlign=middle;whiteSpace=wrap;rounded=0;" vertex="1" parent="AQJB-UiX3F591cEKx2Es-77">
          <mxGeometry width="20" height="15" as="geometry" />
        </mxCell>
        <mxCell id="AQJB-UiX3F591cEKx2Es-78" value="" style="group" vertex="1" connectable="0" parent="1">
          <mxGeometry x="445" y="160" width="20" height="45" as="geometry" />
        </mxCell>
        <mxCell id="AQJB-UiX3F591cEKx2Es-72" value="" style="rounded=0;whiteSpace=wrap;html=1;" vertex="1" parent="AQJB-UiX3F591cEKx2Es-78">
          <mxGeometry x="5" y="15" width="10" height="30" as="geometry" />
        </mxCell>
        <mxCell id="AQJB-UiX3F591cEKx2Es-73" value="&lt;font style=&quot;line-height: 80%; font-size: 4px;&quot;&gt;DENS&lt;/font&gt;" style="text;html=1;align=center;verticalAlign=middle;whiteSpace=wrap;rounded=0;" vertex="1" parent="AQJB-UiX3F591cEKx2Es-78">
          <mxGeometry width="20" height="15" as="geometry" />
        </mxCell>
        <mxCell id="AQJB-UiX3F591cEKx2Es-81" value="" style="group" vertex="1" connectable="0" parent="1">
          <mxGeometry x="210" y="382.5" width="39.370000000000005" height="27.5" as="geometry" />
        </mxCell>
        <mxCell id="AQJB-UiX3F591cEKx2Es-79" value="" style="rounded=0;whiteSpace=wrap;html=1;" vertex="1" parent="AQJB-UiX3F591cEKx2Es-81">
          <mxGeometry x="12.180000000000007" width="15" height="15" as="geometry" />
        </mxCell>
        <mxCell id="AQJB-UiX3F591cEKx2Es-80" value="&lt;font style=&quot;line-height: 80%; font-size: 4px;&quot;&gt;AG 1&lt;/font&gt;" style="text;html=1;align=center;verticalAlign=middle;whiteSpace=wrap;rounded=0;" vertex="1" parent="AQJB-UiX3F591cEKx2Es-81">
          <mxGeometry y="12.5" width="39.37" height="15" as="geometry" />
        </mxCell>
        <mxCell id="AQJB-UiX3F591cEKx2Es-95" value="" style="group;strokeWidth=1;" vertex="1" connectable="0" parent="1">
          <mxGeometry x="238" y="382.5" width="39.370000000000005" height="27.5" as="geometry" />
        </mxCell>
        <mxCell id="AQJB-UiX3F591cEKx2Es-96" value="" style="rounded=0;whiteSpace=wrap;html=1;" vertex="1" parent="AQJB-UiX3F591cEKx2Es-95">
          <mxGeometry x="12.180000000000007" width="15" height="15" as="geometry" />
        </mxCell>
        <mxCell id="AQJB-UiX3F591cEKx2Es-97" value="&lt;font style=&quot;line-height: 80%; font-size: 4px;&quot;&gt;AG 2&lt;/font&gt;" style="text;html=1;align=center;verticalAlign=middle;whiteSpace=wrap;rounded=0;" vertex="1" parent="AQJB-UiX3F591cEKx2Es-95">
          <mxGeometry y="12.5" width="39.37" height="15" as="geometry" />
        </mxCell>
        <mxCell id="AQJB-UiX3F591cEKx2Es-110" value="" style="group" vertex="1" connectable="0" parent="1">
          <mxGeometry x="380.55" y="382.5" width="39.370000000000005" height="27.5" as="geometry" />
        </mxCell>
        <mxCell id="AQJB-UiX3F591cEKx2Es-111" value="" style="rounded=0;whiteSpace=wrap;html=1;" vertex="1" parent="AQJB-UiX3F591cEKx2Es-110">
          <mxGeometry x="12.180000000000007" width="15" height="15" as="geometry" />
        </mxCell>
        <mxCell id="AQJB-UiX3F591cEKx2Es-112" value="&lt;font style=&quot;line-height: 80%; font-size: 4px;&quot;&gt;AG 7&lt;/font&gt;" style="text;html=1;align=center;verticalAlign=middle;whiteSpace=wrap;rounded=0;" vertex="1" parent="AQJB-UiX3F591cEKx2Es-110">
          <mxGeometry y="12.5" width="39.37" height="15" as="geometry" />
        </mxCell>
        <mxCell id="AQJB-UiX3F591cEKx2Es-116" value="" style="group" vertex="1" connectable="0" parent="1">
          <mxGeometry x="462.19" y="382.5" width="39.370000000000005" height="27.5" as="geometry" />
        </mxCell>
        <mxCell id="AQJB-UiX3F591cEKx2Es-117" value="" style="rounded=0;whiteSpace=wrap;html=1;" vertex="1" parent="AQJB-UiX3F591cEKx2Es-116">
          <mxGeometry x="12.180000000000007" width="15" height="15" as="geometry" />
        </mxCell>
        <mxCell id="AQJB-UiX3F591cEKx2Es-118" value="&lt;font style=&quot;line-height: 80%; font-size: 4px;&quot;&gt;AG 0&lt;/font&gt;" style="text;html=1;align=center;verticalAlign=middle;whiteSpace=wrap;rounded=0;" vertex="1" parent="AQJB-UiX3F591cEKx2Es-116">
          <mxGeometry y="12.5" width="39.37" height="15" as="geometry" />
        </mxCell>
        <mxCell id="AQJB-UiX3F591cEKx2Es-99" value="" style="rounded=0;whiteSpace=wrap;html=1;" vertex="1" parent="1">
          <mxGeometry x="277.63" y="382.5" width="15" height="15" as="geometry" />
        </mxCell>
        <mxCell id="AQJB-UiX3F591cEKx2Es-100" value="&lt;font style=&quot;line-height: 80%; font-size: 4px;&quot;&gt;AG 3&lt;/font&gt;" style="text;html=1;align=center;verticalAlign=middle;whiteSpace=wrap;rounded=0;" vertex="1" parent="1">
          <mxGeometry x="265.63" y="395" width="39.37" height="15" as="geometry" />
        </mxCell>
        <mxCell id="AQJB-UiX3F591cEKx2Es-102" value="" style="rounded=0;whiteSpace=wrap;html=1;" vertex="1" parent="1">
          <mxGeometry x="306.18" y="382.5" width="15" height="15" as="geometry" />
        </mxCell>
        <mxCell id="AQJB-UiX3F591cEKx2Es-103" value="&lt;font style=&quot;line-height: 80%; font-size: 4px;&quot;&gt;AG 4&lt;/font&gt;" style="text;html=1;align=center;verticalAlign=middle;whiteSpace=wrap;rounded=0;" vertex="1" parent="1">
          <mxGeometry x="294" y="395" width="39.37" height="15" as="geometry" />
        </mxCell>
        <mxCell id="AQJB-UiX3F591cEKx2Es-104" value="" style="group" vertex="1" connectable="0" parent="1">
          <mxGeometry x="321.18" y="382.5" width="59.370000000000005" height="27.5" as="geometry" />
        </mxCell>
        <mxCell id="AQJB-UiX3F591cEKx2Es-105" value="" style="rounded=0;whiteSpace=wrap;html=1;" vertex="1" parent="AQJB-UiX3F591cEKx2Es-104">
          <mxGeometry x="12.180000000000007" width="15" height="15" as="geometry" />
        </mxCell>
        <mxCell id="AQJB-UiX3F591cEKx2Es-106" value="&lt;font style=&quot;line-height: 80%; font-size: 4px;&quot;&gt;AG 5&lt;/font&gt;" style="text;html=1;align=center;verticalAlign=middle;whiteSpace=wrap;rounded=0;" vertex="1" parent="AQJB-UiX3F591cEKx2Es-104">
          <mxGeometry y="12.5" width="39.37" height="15" as="geometry" />
        </mxCell>
        <mxCell id="AQJB-UiX3F591cEKx2Es-107" value="" style="group" vertex="1" connectable="0" parent="1">
          <mxGeometry x="350" y="382.5" width="39.370000000000005" height="27.5" as="geometry" />
        </mxCell>
        <mxCell id="AQJB-UiX3F591cEKx2Es-108" value="" style="rounded=0;whiteSpace=wrap;html=1;" vertex="1" parent="AQJB-UiX3F591cEKx2Es-107">
          <mxGeometry x="12.180000000000007" width="15" height="15" as="geometry" />
        </mxCell>
        <mxCell id="AQJB-UiX3F591cEKx2Es-109" value="&lt;font style=&quot;line-height: 80%; font-size: 4px;&quot;&gt;AG 6&lt;/font&gt;" style="text;html=1;align=center;verticalAlign=middle;whiteSpace=wrap;rounded=0;" vertex="1" parent="AQJB-UiX3F591cEKx2Es-107">
          <mxGeometry y="12.5" width="39.37" height="15" as="geometry" />
        </mxCell>
        <mxCell id="AQJB-UiX3F591cEKx2Es-122" value="" style="group" vertex="1" connectable="0" parent="1">
          <mxGeometry x="405.63" y="382.5" width="39.370000000000005" height="25" as="geometry" />
        </mxCell>
        <mxCell id="AQJB-UiX3F591cEKx2Es-114" value="" style="rounded=0;whiteSpace=wrap;html=1;" vertex="1" parent="AQJB-UiX3F591cEKx2Es-122">
          <mxGeometry x="12.180000000000007" width="15" height="15" as="geometry" />
        </mxCell>
        <mxCell id="AQJB-UiX3F591cEKx2Es-115" value="&lt;font style=&quot;line-height: 80%; font-size: 4px;&quot;&gt;AG 8&lt;/font&gt;" style="text;html=1;align=center;verticalAlign=middle;whiteSpace=wrap;rounded=0;" vertex="1" parent="AQJB-UiX3F591cEKx2Es-122">
          <mxGeometry y="10" width="39.37" height="15" as="geometry" />
        </mxCell>
        <mxCell id="AQJB-UiX3F591cEKx2Es-120" value="" style="rounded=0;whiteSpace=wrap;html=1;" vertex="1" parent="1">
          <mxGeometry x="447.19" y="382.5" width="15" height="15" as="geometry" />
        </mxCell>
        <mxCell id="AQJB-UiX3F591cEKx2Es-121" value="&lt;font style=&quot;line-height: 80%; font-size: 4px;&quot;&gt;AG 9&lt;/font&gt;" style="text;html=1;align=center;verticalAlign=middle;whiteSpace=wrap;rounded=0;" vertex="1" parent="1">
          <mxGeometry x="435" y="392.5" width="39.37" height="15" as="geometry" />
        </mxCell>
        <mxCell id="AQJB-UiX3F591cEKx2Es-130" value="" style="group" vertex="1" connectable="0" parent="1">
          <mxGeometry x="498.44" y="220.00000000000003" width="39.370000000000005" height="39.99999999999997" as="geometry" />
        </mxCell>
        <mxCell id="AQJB-UiX3F591cEKx2Es-123" value="" style="ellipse;whiteSpace=wrap;html=1;aspect=fixed;" vertex="1" parent="AQJB-UiX3F591cEKx2Es-130">
          <mxGeometry x="12.180000000000007" y="15" width="15" height="15" as="geometry" />
        </mxCell>
        <mxCell id="AQJB-UiX3F591cEKx2Es-129" value="" style="group" vertex="1" connectable="0" parent="AQJB-UiX3F591cEKx2Es-130">
          <mxGeometry width="39.370000000000005" height="39.99999999999997" as="geometry" />
        </mxCell>
        <mxCell id="AQJB-UiX3F591cEKx2Es-124" value="" style="rounded=0;whiteSpace=wrap;html=1;" vertex="1" parent="AQJB-UiX3F591cEKx2Es-129">
          <mxGeometry x="14.680000000000007" width="10" height="20" as="geometry" />
        </mxCell>
        <mxCell id="AQJB-UiX3F591cEKx2Es-125" value="&lt;font style=&quot;line-height: 80%; font-size: 4px;&quot;&gt;LIGHT&lt;/font&gt;" style="text;html=1;align=center;verticalAlign=middle;whiteSpace=wrap;rounded=0;" vertex="1" parent="AQJB-UiX3F591cEKx2Es-129">
          <mxGeometry y="25" width="39.37" height="15" as="geometry" />
        </mxCell>
        <mxCell id="AQJB-UiX3F591cEKx2Es-131" value="" style="group" vertex="1" connectable="0" parent="1">
          <mxGeometry x="545" y="220" width="39.370000000000005" height="39.99999999999997" as="geometry" />
        </mxCell>
        <mxCell id="AQJB-UiX3F591cEKx2Es-132" value="" style="ellipse;whiteSpace=wrap;html=1;aspect=fixed;" vertex="1" parent="AQJB-UiX3F591cEKx2Es-131">
          <mxGeometry x="12.180000000000007" y="15" width="15" height="15" as="geometry" />
        </mxCell>
        <mxCell id="AQJB-UiX3F591cEKx2Es-133" value="" style="group" vertex="1" connectable="0" parent="AQJB-UiX3F591cEKx2Es-131">
          <mxGeometry width="39.370000000000005" height="39.99999999999997" as="geometry" />
        </mxCell>
        <mxCell id="AQJB-UiX3F591cEKx2Es-134" value="" style="rounded=0;whiteSpace=wrap;html=1;" vertex="1" parent="AQJB-UiX3F591cEKx2Es-133">
          <mxGeometry x="14.680000000000007" width="10" height="20" as="geometry" />
        </mxCell>
        <mxCell id="AQJB-UiX3F591cEKx2Es-135" value="&lt;font style=&quot;line-height: 80%; font-size: 4px;&quot;&gt;GEAR&lt;/font&gt;" style="text;html=1;align=center;verticalAlign=middle;whiteSpace=wrap;rounded=0;" vertex="1" parent="AQJB-UiX3F591cEKx2Es-133">
          <mxGeometry y="25" width="39.37" height="15" as="geometry" />
        </mxCell>
        <mxCell id="AQJB-UiX3F591cEKx2Es-136" value="" style="group" vertex="1" connectable="0" parent="1">
          <mxGeometry x="243" y="233" width="39.370000000000005" height="39.99999999999997" as="geometry" />
        </mxCell>
        <mxCell id="AQJB-UiX3F591cEKx2Es-137" value="" style="ellipse;whiteSpace=wrap;html=1;aspect=fixed;" vertex="1" parent="AQJB-UiX3F591cEKx2Es-136">
          <mxGeometry x="12.180000000000007" y="15" width="15" height="15" as="geometry" />
        </mxCell>
        <mxCell id="AQJB-UiX3F591cEKx2Es-138" value="" style="group" vertex="1" connectable="0" parent="AQJB-UiX3F591cEKx2Es-136">
          <mxGeometry width="39.370000000000005" height="39.99999999999997" as="geometry" />
        </mxCell>
        <mxCell id="AQJB-UiX3F591cEKx2Es-139" value="" style="rounded=0;whiteSpace=wrap;html=1;" vertex="1" parent="AQJB-UiX3F591cEKx2Es-138">
          <mxGeometry x="14.680000000000007" width="10" height="20" as="geometry" />
        </mxCell>
        <mxCell id="AQJB-UiX3F591cEKx2Es-140" value="&lt;font style=&quot;line-height: 80%; font-size: 4px;&quot;&gt;FLIGHT CONTROL&lt;/font&gt;" style="text;html=1;align=center;verticalAlign=middle;whiteSpace=wrap;rounded=0;" vertex="1" parent="AQJB-UiX3F591cEKx2Es-138">
          <mxGeometry y="25" width="39.37" height="15" as="geometry" />
        </mxCell>
        <mxCell id="AQJB-UiX3F591cEKx2Es-141" value="" style="group" vertex="1" connectable="0" parent="1">
          <mxGeometry x="285" y="233" width="39.370000000000005" height="39.99999999999997" as="geometry" />
        </mxCell>
        <mxCell id="AQJB-UiX3F591cEKx2Es-142" value="" style="ellipse;whiteSpace=wrap;html=1;aspect=fixed;" vertex="1" parent="AQJB-UiX3F591cEKx2Es-141">
          <mxGeometry x="12.180000000000007" y="15" width="15" height="15" as="geometry" />
        </mxCell>
        <mxCell id="AQJB-UiX3F591cEKx2Es-143" value="" style="group" vertex="1" connectable="0" parent="AQJB-UiX3F591cEKx2Es-141">
          <mxGeometry width="39.370000000000005" height="39.99999999999997" as="geometry" />
        </mxCell>
        <mxCell id="AQJB-UiX3F591cEKx2Es-144" value="" style="rounded=0;whiteSpace=wrap;html=1;" vertex="1" parent="AQJB-UiX3F591cEKx2Es-143">
          <mxGeometry x="14.680000000000007" width="10" height="20" as="geometry" />
        </mxCell>
        <mxCell id="AQJB-UiX3F591cEKx2Es-145" value="&lt;font style=&quot;line-height: 80%; font-size: 4px;&quot;&gt;RCS&lt;/font&gt;" style="text;html=1;align=center;verticalAlign=middle;whiteSpace=wrap;rounded=0;" vertex="1" parent="AQJB-UiX3F591cEKx2Es-143">
          <mxGeometry y="25" width="39.37" height="15" as="geometry" />
        </mxCell>
        <mxCell id="AQJB-UiX3F591cEKx2Es-146" value="" style="group" vertex="1" connectable="0" parent="1">
          <mxGeometry x="320.63" y="233" width="39.370000000000005" height="39.99999999999997" as="geometry" />
        </mxCell>
        <mxCell id="AQJB-UiX3F591cEKx2Es-147" value="" style="ellipse;whiteSpace=wrap;html=1;aspect=fixed;" vertex="1" parent="AQJB-UiX3F591cEKx2Es-146">
          <mxGeometry x="12.180000000000007" y="15" width="15" height="15" as="geometry" />
        </mxCell>
        <mxCell id="AQJB-UiX3F591cEKx2Es-148" value="" style="group" vertex="1" connectable="0" parent="AQJB-UiX3F591cEKx2Es-146">
          <mxGeometry width="39.370000000000005" height="39.99999999999997" as="geometry" />
        </mxCell>
        <mxCell id="AQJB-UiX3F591cEKx2Es-149" value="" style="rounded=0;whiteSpace=wrap;html=1;" vertex="1" parent="AQJB-UiX3F591cEKx2Es-148">
          <mxGeometry x="14.680000000000007" width="10" height="20" as="geometry" />
        </mxCell>
        <mxCell id="AQJB-UiX3F591cEKx2Es-150" value="&lt;font style=&quot;line-height: 80%; font-size: 4px;&quot;&gt;SAS&lt;/font&gt;" style="text;html=1;align=center;verticalAlign=middle;whiteSpace=wrap;rounded=0;" vertex="1" parent="AQJB-UiX3F591cEKx2Es-148">
          <mxGeometry y="25" width="39.37" height="15" as="geometry" />
        </mxCell>
        <mxCell id="AQJB-UiX3F591cEKx2Es-153" value="" style="ellipse;whiteSpace=wrap;html=1;aspect=fixed;" vertex="1" parent="1">
          <mxGeometry x="297.18" y="305" width="15" height="15" as="geometry" />
        </mxCell>
        <mxCell id="AQJB-UiX3F591cEKx2Es-154" value="" style="rounded=0;whiteSpace=wrap;html=1;" vertex="1" parent="1">
          <mxGeometry x="299.68" y="290" width="10" height="20" as="geometry" />
        </mxCell>
        <mxCell id="AQJB-UiX3F591cEKx2Es-155" value="&lt;font style=&quot;line-height: 80%; font-size: 4px;&quot;&gt;RCS MODE&lt;/font&gt;" style="text;html=1;align=center;verticalAlign=middle;whiteSpace=wrap;rounded=0;" vertex="1" parent="1">
          <mxGeometry x="285" y="315" width="39.37" height="15" as="geometry" />
        </mxCell>
        <mxCell id="AQJB-UiX3F591cEKx2Es-158" value="" style="ellipse;whiteSpace=wrap;html=1;aspect=fixed;" vertex="1" parent="1">
          <mxGeometry x="255.18" y="303" width="15" height="15" as="geometry" />
        </mxCell>
        <mxCell id="AQJB-UiX3F591cEKx2Es-159" value="" style="rounded=0;whiteSpace=wrap;html=1;" vertex="1" parent="1">
          <mxGeometry x="257.68" y="288" width="10" height="20" as="geometry" />
        </mxCell>
        <mxCell id="AQJB-UiX3F591cEKx2Es-160" value="&lt;font style=&quot;line-height: 80%; font-size: 4px;&quot;&gt;RCS PRECISE&lt;/font&gt;" style="text;html=1;align=center;verticalAlign=middle;whiteSpace=wrap;rounded=0;" vertex="1" parent="1">
          <mxGeometry x="243" y="313" width="39.37" height="15" as="geometry" />
        </mxCell>
        <mxCell id="AQJB-UiX3F591cEKx2Es-165" value="" style="ellipse;whiteSpace=wrap;html=1;aspect=fixed;" vertex="1" parent="1">
          <mxGeometry x="343.37" y="295" width="15" height="15" as="geometry" />
        </mxCell>
        <mxCell id="AQJB-UiX3F591cEKx2Es-167" value="&lt;font style=&quot;line-height: 80%; font-size: 4px;&quot;&gt;SAS MODE POTI&lt;/font&gt;" style="text;html=1;align=center;verticalAlign=middle;whiteSpace=wrap;rounded=0;" vertex="1" parent="1">
          <mxGeometry x="331.18" y="310" width="39.37" height="15" as="geometry" />
        </mxCell>
      </root>
    </mxGraphModel>
  </diagram>
</mxfile>
